<svg width="24" height="24" viewBox="0 0 24 24" fill="none" xmlns="http://www.w3.org/2000/svg">
<path fill-rule="evenodd" clip-rule="evenodd" d="M20.3344 14.5C20.3344 15.2978 19.7658 15.9677 19.0132 16.1297C18.933 16.1256 18.8561 16.1345 18.7783 16.1556C18.7402 16.158 18.7062 16.1661 18.6673 16.1661H17.8338V12.0005H18.6673C19.5851 12.0005 20.3344 12.7497 20.3344 13.6674L20.3344 14.5ZM12.0005 20.3334C11.333 20.3334 11.1661 19.8328 11.1661 19.4991C11.1661 19.167 11.333 18.6665 12.0005 18.6665C12.6679 18.6665 12.8348 19.1671 12.8348 19.4991C12.8348 19.8328 12.6679 20.3334 12.0005 20.3334ZM6.16722 16.1661H5.33368C4.41588 16.1661 3.66657 15.4161 3.66657 14.5V13.6673C3.66657 12.7497 4.41588 12.0004 5.33368 12.0004H6.16722V16.1661ZM20.3261 10.7945C20.3318 10.6487 20.3342 10.5005 20.3342 10.3344C20.3342 5.75158 16.5837 2 12.0003 2C7.41687 2 3.6663 5.75178 3.6663 10.3344C3.6663 10.498 3.66954 10.6487 3.68007 10.792C2.68208 11.3687 2 12.4371 2 13.6673V14.5C2 16.3329 3.49942 17.8329 5.33334 17.8329H6.99963C7.50026 17.8329 7.83237 17.4992 7.83237 17.0003V11.1661C7.83237 10.6663 7.50024 10.3343 6.99963 10.3343H5.33334C5.33334 6.6675 8.33301 3.66757 12 3.66757C15.667 3.66757 18.6667 6.66771 18.6667 10.3343H17.0004C16.4998 10.3343 16.1677 10.6664 16.1677 11.1661V17.0003C16.1677 17.4992 16.4998 17.8329 17.0004 17.8329H17.5472C16.8295 18.881 15.7861 19.6262 14.4162 19.9995C14.4997 19.8327 14.4997 19.6658 14.4997 19.4989C14.4997 18.4995 13.8338 17.0002 11.9998 17.0002C10.1666 17.0002 9.50071 18.4994 9.50071 19.4989C9.50071 20.5001 10.1666 22 11.9998 22C16.506 22 18.6221 19.7532 19.5625 17.6942C20.9615 17.2981 22 16.0208 22 14.4998V13.6671C22 12.4392 21.3212 11.3726 20.3256 10.7943L20.3261 10.7945Z" fill="#25282B"/>
</svg>
