<svg width="24" height="24" viewBox="0 0 24 24" fill="none" xmlns="http://www.w3.org/2000/svg">
<path d="M1.78771 13.169L2.79365 14.4815L2.57521 16.08C2.45615 16.9565 2.95208 17.8012 3.77521 18.1247L5.27989 18.72L5.88457 20.2322C6.20802 21.0553 7.0527 21.5512 7.92925 21.4322L9.52299 21.2109L10.8355 22.2169C11.5246 22.7447 12.4818 22.7447 13.1708 22.2169L14.4833 21.2109L16.0771 21.4322C16.9546 21.5512 17.7983 21.0553 18.1227 20.2322L18.7199 18.72L20.2321 18.1153C21.0552 17.7918 21.5511 16.9472 21.4321 16.0706L21.2108 14.4769L22.2168 13.1644C22.7446 12.4753 22.7446 11.5181 22.2168 10.829L21.2108 9.51653L21.4246 7.91998C21.5436 7.04342 21.0477 6.19872 20.2246 5.87529L18.7199 5.27997L18.1152 3.76778C17.7918 2.94465 16.9471 2.44872 16.0705 2.56778L14.4768 2.78903L13.1662 1.78778C12.4771 1.25997 11.5199 1.25997 10.8309 1.78778L9.51835 2.79371L7.9199 2.57528C7.04335 2.45621 6.19864 2.95215 5.87522 3.77528L5.2799 5.27996L3.76771 5.88464C2.94458 6.20808 2.44864 7.05276 2.56771 7.92932L2.78896 9.52306L1.7877 10.8337C1.25989 11.5227 1.25989 12.4799 1.7877 13.169L1.78771 13.169ZM4.31995 10.6874C4.63402 10.2777 4.76995 9.75835 4.69682 9.24741L4.47557 7.65367L5.99996 7.05835C6.48183 6.86335 6.86341 6.4818 7.05841 5.9999L7.66309 4.48771L9.25683 4.70896C9.76777 4.78021 10.2862 4.64427 10.6968 4.33209L12 3.31209L13.3125 4.3199C13.7221 4.63396 14.2415 4.7699 14.7525 4.69677L16.3434 4.47552L16.9415 5.99991C17.1365 6.48178 17.5181 6.86335 18 7.05835L19.5122 7.66303L19.2937 9.25397C19.2206 9.76584 19.3566 10.2843 19.6706 10.694L20.6859 11.9999L19.68 13.3124C19.365 13.7221 19.2281 14.2415 19.3012 14.7524L19.5225 16.3462L18 16.9387C17.5181 17.1346 17.1365 17.5171 16.9415 17.9999L16.3369 19.5121L14.7431 19.2909C14.2322 19.2196 13.7137 19.3556 13.3031 19.6677L12 20.6859L10.6875 19.6799C10.3509 19.4231 9.93935 19.2843 9.5156 19.2843C9.42935 19.2834 9.3431 19.289 9.25686 19.3012L7.66312 19.5224L7.05843 17.9999C6.86343 17.5181 6.48188 17.1365 5.99999 16.9415L4.4878 16.3368L4.70623 14.7459C4.77936 14.234 4.64342 13.7155 4.32936 13.3059L3.31404 11.9999L4.31995 10.6874Z" fill="#25282B"/>
<path d="M10.4662 15.36C10.8694 15.689 11.4609 15.6384 11.8012 15.2447L16.289 10.0369C16.4615 9.84472 16.5496 9.59159 16.5327 9.33378C16.5159 9.07597 16.3968 8.83597 16.2009 8.66816C16.0059 8.49941 15.7509 8.41691 15.4931 8.43848C15.2362 8.46098 14.999 8.58473 14.834 8.78441L10.9556 13.2789L9.0356 11.7114V11.7123C8.62309 11.4095 8.0456 11.4836 7.72309 11.8811C7.40058 12.2776 7.4456 12.858 7.82621 13.2002L10.4662 15.36Z" fill="#25282B"/>
</svg>
