<svg width="24" height="24" viewBox="0 0 24 24" fill="none" xmlns="http://www.w3.org/2000/svg">
<g clip-path="url(#clip0)">
<path d="M21.3444 5.80268H10.8243C10.521 3.09827 8.21919 1 5.43731 1C2.45286 1 0 3.42702 0 6.43461C0 9.21511 2.09926 11.5158 4.80507 11.8189V21.374C4.80507 21.6011 4.93151 21.8035 5.10834 21.9052C5.31086 22.0059 5.53806 22.0059 5.74059 21.9052L7.73808 20.7421L9.73557 21.9052C9.93808 22.0316 10.1653 22.0316 10.3678 21.9052L12.3653 20.7421L14.3628 21.9052C14.4636 21.9556 14.5653 21.9812 14.6661 21.9812C14.7668 21.9812 14.8933 21.9556 14.9693 21.9052L16.9668 20.7421L18.9643 21.9052C19.1668 22.0059 19.3941 22.0316 19.5966 21.9052C19.7991 21.8045 19.8998 21.6021 19.8998 21.374L19.9028 13.9172H23.3931C23.722 13.9172 23.9996 13.6387 23.9996 13.3109V8.48248C24.0253 6.99054 22.8369 5.80258 21.3442 5.80258L21.3444 5.80268ZM1.23895 6.40893C1.23895 4.1083 3.10999 2.2124 5.43756 2.2124C7.73934 2.2124 9.63618 4.08251 9.63618 6.40893C9.63618 8.70957 7.76514 10.6055 5.43756 10.6055C3.1111 10.6055 1.23895 8.73535 1.23895 6.40893ZM18.6641 8.48245V20.2867L17.2732 19.478C17.0707 19.3516 16.8435 19.3516 16.641 19.478L14.6435 20.6412L12.646 19.478C12.4435 19.3516 12.2162 19.3516 12.0137 19.478L10.0162 20.6412L8.01874 19.478C7.91798 19.4277 7.81623 19.402 7.71547 19.402C7.6147 19.402 7.48825 19.4277 7.41219 19.478L6.02125 20.2867L6.01928 11.8188C8.52256 11.5403 10.5211 9.54384 10.7985 7.0419L19.0939 7.04091C18.841 7.44575 18.6641 7.9513 18.6641 8.4825L18.6641 8.48245ZM22.7866 12.678H19.9031V8.48245C19.9031 7.69845 20.561 7.04185 21.3444 7.04185C22.1288 7.04185 22.7857 7.69946 22.7857 8.48245L22.7866 12.678Z" fill="#25282B"/>
<path d="M5.89311 9.4175V8.8616C6.55105 8.73522 7.05685 8.20399 7.10723 7.57206C7.15761 7.16722 7.00646 6.76339 6.72788 6.46026C6.44929 6.15714 6.06994 5.9804 5.64022 5.9804H5.1848C5.03266 5.9804 4.88152 5.90437 4.77975 5.80366C4.67899 5.67727 4.62762 5.55088 4.6533 5.37415C4.67899 5.09569 4.9319 4.89428 5.23517 4.89428H5.76666C5.9435 4.89428 6.09563 5.02067 6.12032 5.17274C6.146 5.24877 6.19638 5.29912 6.27245 5.29912H6.879C6.92938 5.29912 6.97977 5.27345 7.00545 5.24877C7.03113 5.22309 7.05583 5.17274 7.05583 5.12238C7.00545 4.51613 6.52434 4.03525 5.91779 3.9849V3.42901C5.91779 3.32829 5.84172 3.27695 5.76566 3.27695H5.18379C5.08302 3.27695 5.03166 3.35298 5.03166 3.42901V3.9849C4.27296 4.11129 3.74147 4.79357 3.81754 5.57757C3.89361 6.31021 4.55054 6.89179 5.33493 6.89179H5.71428C5.86641 6.89179 6.01755 6.96782 6.11932 7.06853C6.22009 7.19492 6.27145 7.3213 6.24577 7.49804C6.22009 7.7765 5.96718 7.97791 5.6639 7.97791H5.13241C4.95558 7.97791 4.80344 7.85152 4.77876 7.69945C4.75307 7.62342 4.70269 7.57307 4.62662 7.57307H4.02007C3.96969 7.57307 3.91931 7.59874 3.89362 7.62342C3.86794 7.64909 3.84324 7.69945 3.84324 7.74981C3.89362 8.35606 4.37473 8.83693 4.98128 8.88729V9.44318C4.98128 9.5439 5.05735 9.59524 5.13342 9.59524H5.71529C5.81704 9.56858 5.8931 9.49354 5.8931 9.41751L5.89311 9.4175Z" fill="#25282B"/>
<path d="M15.9329 15.9638H8.80138C8.47241 15.9638 8.19482 16.2422 8.19482 16.57C8.19482 16.8988 8.47342 17.1763 8.80138 17.1763H15.9329C16.2618 17.1763 16.5394 16.8978 16.5394 16.57C16.5394 16.2422 16.2618 15.9638 15.9329 15.9638Z" fill="#25282B"/>
<path d="M15.9329 12.678H8.80138C8.47241 12.678 8.19482 12.9565 8.19482 13.2843C8.19482 13.6131 8.47342 13.8905 8.80138 13.8905H15.9329C16.2618 13.8905 16.5394 13.6121 16.5394 13.2843C16.5394 12.9565 16.2618 12.678 15.9329 12.678Z" fill="#25282B"/>
<path d="M12.5445 10.6312H15.9329C16.2618 10.6312 16.5394 10.3527 16.5394 10.0249C16.5394 9.69613 16.2608 9.41869 15.9329 9.41869L12.5445 9.4177C12.2156 9.4177 11.938 9.69615 11.938 10.0239C11.937 10.3528 12.1899 10.6312 12.5445 10.6312V10.6312Z" fill="#25282B"/>
</g>
<defs>
<clipPath id="clip0">
<path d="M0 0H24V24H0V0Z" fill="white"/>
</clipPath>
</defs>
</svg>
