<svg width="44" height="44" viewBox="0 0 44 44" fill="none" xmlns="http://www.w3.org/2000/svg">
<rect width="44" height="44" rx="10" fill="#F76707"/>
<mask id="mask0" mask-type="alpha" maskUnits="userSpaceOnUse" x="0" y="0" width="44" height="44">
<rect width="44" height="44" rx="10" fill="#F76707"/>
</mask>
<g mask="url(#mask0)">
<g style="mix-blend-mode:multiply">
<path d="M4.62617 43.2334C4.86866 43.3164 4.86866 43.5652 4.62617 43.6481C4.38367 43.7311 4.06033 43.7311 3.89867 43.6481C3.65617 43.5652 3.65617 43.3164 3.89867 43.2334C4.06033 43.1505 4.38367 43.1505 4.62617 43.2334Z" fill="#16110D"/>
<path d="M0.747235 43.2334C0.989729 43.3164 0.989729 43.5652 0.747235 43.6481C0.504742 43.7311 0.181423 43.7311 0.0197606 43.6481C-0.222733 43.5652 -0.222733 43.3164 0.0197606 43.2334C0.181423 43.1505 0.504742 43.1505 0.747235 43.2334Z" fill="#16110D"/>
<path d="M2.68669 42.0717C2.92918 42.1546 2.92918 42.4034 2.68669 42.4864C2.4442 42.5693 2.12088 42.5693 1.95921 42.4864C1.71672 42.4034 1.71672 42.1546 1.95921 42.0717C2.12088 41.9887 2.4442 41.9887 2.68669 42.0717Z" fill="#16110D"/>
<path d="M0.747235 40.9099C0.989729 40.9929 0.989729 41.2417 0.747235 41.3246C0.504742 41.4076 0.181423 41.4076 0.0197606 41.3246C-0.222733 41.2417 -0.222733 40.9929 0.0197606 40.9099C0.181423 40.827 0.504742 40.827 0.747235 40.9099Z" fill="#16110D"/>
<path d="M6.56559 42.0717C6.80809 42.1546 6.80809 42.4034 6.56559 42.4864C6.3231 42.5693 5.99978 42.5693 5.83812 42.4864C5.59563 42.4034 5.59563 42.1546 5.83812 42.0717C6.08061 41.9887 6.40393 41.9887 6.56559 42.0717Z" fill="#16110D"/>
<path d="M8.5861 40.9099C8.8286 40.9929 8.8286 41.2417 8.5861 41.3246C8.34361 41.4076 8.02029 41.4076 7.85863 41.3246C7.61613 41.2417 7.61613 40.9929 7.85863 40.9099C8.02029 40.827 8.34361 40.827 8.5861 40.9099Z" fill="#16110D"/>
<path d="M10.1215 40.3287C10.434 40.3287 10.6873 40.1802 10.6873 39.997C10.6873 39.8138 10.434 39.6652 10.1215 39.6652C9.809 39.6652 9.55566 39.8138 9.55566 39.997C9.55566 40.1802 9.809 40.3287 10.1215 40.3287Z" fill="#16110D"/>
<path d="M12.4645 38.5865C12.707 38.6694 12.707 38.9182 12.4645 39.0011C12.222 39.0841 11.8987 39.0841 11.737 39.0011C11.4946 38.9182 11.4946 38.6694 11.737 38.5865C11.8987 38.5035 12.222 38.5035 12.4645 38.5865Z" fill="#16110D"/>
<path d="M14.0814 38.0052C14.3939 38.0052 14.6473 37.8567 14.6473 37.6735C14.6473 37.4903 14.3939 37.3417 14.0814 37.3417C13.7689 37.3417 13.5156 37.4903 13.5156 37.6735C13.5156 37.8567 13.7689 38.0052 14.0814 38.0052Z" fill="#16110D"/>
<path d="M16.3439 36.2629C16.5864 36.3459 16.5864 36.5947 16.3439 36.6776C16.1014 36.7606 15.7781 36.7606 15.6164 36.6776C15.3739 36.5947 15.3739 36.3459 15.6164 36.2629C15.8589 36.18 16.1823 36.18 16.3439 36.2629Z" fill="#16110D"/>
<path d="M18.3635 35.1012C18.606 35.1841 18.606 35.433 18.3635 35.5159C18.121 35.5988 17.7976 35.5988 17.636 35.5159C17.3935 35.433 17.3935 35.1841 17.636 35.1012C17.7976 35.0183 18.121 35.0183 18.3635 35.1012Z" fill="#16110D"/>
<path d="M3.89867 40.9099C4.14116 40.827 4.4645 40.827 4.62617 40.9099C4.86866 40.9929 4.86866 41.2417 4.62617 41.3246C4.38367 41.4076 4.06033 41.4076 3.89867 41.3246C3.65617 41.2417 3.65617 41.0758 3.89867 40.9099Z" fill="#16110D"/>
<path d="M6.56559 39.7482C6.80809 39.8311 6.80809 40.0799 6.56559 40.1629C6.3231 40.2458 5.99978 40.2458 5.83812 40.1629C5.59563 40.0799 5.59563 39.8311 5.83812 39.7482C6.08061 39.6653 6.40393 39.6653 6.56559 39.7482Z" fill="#16110D"/>
<path d="M8.5861 38.5865C8.8286 38.6694 8.8286 38.9182 8.5861 39.0011C8.34361 39.0841 8.02029 39.0841 7.85863 39.0011C7.61613 38.9182 7.61613 38.6694 7.85863 38.5865C8.02029 38.5035 8.34361 38.5035 8.5861 38.5865Z" fill="#16110D"/>
<path d="M10.1215 38.0052C10.434 38.0052 10.6873 37.8567 10.6873 37.6735C10.6873 37.4903 10.434 37.3417 10.1215 37.3417C9.809 37.3417 9.55566 37.4903 9.55566 37.6735C9.55566 37.8567 9.809 38.0052 10.1215 38.0052Z" fill="#16110D"/>
<path d="M12.4645 36.2629C12.707 36.3459 12.707 36.5947 12.4645 36.6776C12.222 36.7606 11.8987 36.7606 11.737 36.6776C11.4946 36.5947 11.4946 36.3459 11.737 36.2629C11.8987 36.18 12.222 36.18 12.4645 36.2629Z" fill="#16110D"/>
<path d="M14.4049 35.1012C14.6474 35.1841 14.6474 35.433 14.4049 35.5159C14.1624 35.5988 13.8391 35.5988 13.6775 35.5159C13.5158 35.433 13.435 35.1841 13.6775 35.1012C13.8391 35.0183 14.2433 35.0183 14.4049 35.1012Z" fill="#16110D"/>
<path d="M16.3439 33.9394C16.5864 34.0224 16.5864 34.2712 16.3439 34.3541C16.1014 34.4371 15.7781 34.4371 15.6164 34.3541C15.3739 34.2712 15.3739 34.0224 15.6164 33.9394C15.8589 33.8565 16.1823 33.8565 16.3439 33.9394C16.5864 34.1053 16.1823 33.8565 16.3439 33.9394Z" fill="#16110D"/>
<path d="M1.95921 39.7482C2.20171 39.6653 2.52503 39.6653 2.68669 39.7482C2.92918 39.8311 2.92918 40.0799 2.68669 40.1629C2.4442 40.2458 2.12088 40.2458 1.95921 40.1629C1.71672 40.0799 1.71672 39.9141 1.95921 39.7482Z" fill="#16110D"/>
<path d="M4.62617 38.5865C4.86866 38.6694 4.86866 38.9182 4.62617 39.0011C4.38367 39.0841 4.06033 39.0841 3.89867 39.0011C3.65617 38.9182 3.65617 38.6694 3.89867 38.5865C4.14116 38.5035 4.4645 38.5035 4.62617 38.5865Z" fill="#16110D"/>
<path d="M6.56559 37.4247C6.80809 37.5076 6.80809 37.7564 6.56559 37.8394C6.3231 37.9223 5.99978 37.9223 5.83812 37.8394C5.59563 37.7564 5.59563 37.5076 5.83812 37.4247C6.08061 37.3417 6.40393 37.3417 6.56559 37.4247Z" fill="#16110D"/>
<path d="M8.58609 36.2629C8.82858 36.3459 8.82858 36.5947 8.58609 36.6776C8.34359 36.7606 8.02027 36.7606 7.85861 36.6776C7.69695 36.5947 7.61612 36.3459 7.85861 36.2629C8.1011 36.18 8.34359 36.18 8.58609 36.2629Z" fill="#16110D"/>
<path d="M10.5251 35.1012C10.7676 35.1841 10.7676 35.433 10.5251 35.5159C10.2826 35.5988 9.95925 35.5988 9.79759 35.5159C9.5551 35.433 9.5551 35.1841 9.79759 35.1012C9.95925 35.0183 10.2826 35.0183 10.5251 35.1012Z" fill="#16110D"/>
<path d="M12.4645 33.9394C12.707 34.0224 12.707 34.2712 12.4645 34.3541C12.222 34.4371 11.8987 34.4371 11.737 34.3541C11.4946 34.2712 11.4946 34.0224 11.737 33.9394C11.8987 33.8565 12.222 33.8565 12.4645 33.9394Z" fill="#16110D"/>
<path d="M14.405 33.2754C14.1625 33.3583 13.8391 33.3583 13.6775 33.2754C13.435 33.1925 13.435 32.9436 13.6775 32.8607C13.8391 32.6948 14.6474 33.1095 14.405 33.2754Z" fill="#16110D"/>
<path d="M0.0197606 38.5865C0.262254 38.5035 0.585573 38.5035 0.747235 38.5865C0.989729 38.6694 0.989729 38.9182 0.747235 39.0011C0.504742 39.0841 0.181423 39.0841 0.0197606 39.0011C-0.222733 38.9182 -0.222733 38.7523 0.0197606 38.5865Z" fill="#16110D"/>
<path d="M2.68669 37.4247C2.92918 37.5076 2.92918 37.7564 2.68669 37.8394C2.4442 37.9223 2.12088 37.9223 1.95921 37.8394C1.71672 37.7564 1.71672 37.5076 1.95921 37.4247C2.12088 37.3417 2.4442 37.3417 2.68669 37.4247Z" fill="#16110D"/>
<path d="M4.62617 36.2629C4.86866 36.3459 4.86866 36.5947 4.62617 36.6776C4.38367 36.7606 4.06033 36.7606 3.89867 36.6776C3.65617 36.5947 3.65617 36.3459 3.89867 36.2629C4.14116 36.18 4.4645 36.18 4.62617 36.2629Z" fill="#16110D"/>
<path d="M6.56509 35.1012C6.80758 35.1841 6.80758 35.433 6.56509 35.5159C6.3226 35.5988 5.99928 35.5988 5.83762 35.5159C5.67595 35.433 5.59512 35.1841 5.83762 35.1012C6.08011 35.0183 6.40343 35.0183 6.56509 35.1012Z" fill="#16110D"/>
<path d="M8.5861 33.9394C8.8286 34.0224 8.8286 34.2712 8.5861 34.3541C8.34361 34.4371 8.02029 34.4371 7.85863 34.3541C7.61613 34.2712 7.61613 34.0224 7.85863 33.9394C8.02029 33.8565 8.34361 33.8565 8.5861 33.9394Z" fill="#16110D"/>
<path d="M10.1215 33.3583C10.434 33.3583 10.6873 33.2097 10.6873 33.0265C10.6873 32.8433 10.434 32.6948 10.1215 32.6948C9.809 32.6948 9.55566 32.8433 9.55566 33.0265C9.55566 33.2097 9.809 33.3583 10.1215 33.3583Z" fill="#16110D"/>
<path d="M12.4645 32.1137C12.222 32.1966 11.8987 32.1966 11.737 32.1137C11.4946 32.0307 11.4946 31.7819 11.737 31.699C11.8987 31.5331 12.707 31.9478 12.4645 32.1137Z" fill="#16110D"/>
<path d="M0.747235 36.2629C0.989729 36.3459 0.989729 36.5947 0.747235 36.6776C0.504742 36.7606 0.181423 36.7606 0.0197606 36.6776C-0.222733 36.5947 -0.222733 36.3459 0.0197606 36.2629C0.181423 36.18 0.504742 36.18 0.747235 36.2629Z" fill="#16110D"/>
<path d="M2.68669 35.1012C2.92918 35.1841 2.92918 35.433 2.68669 35.5159C2.4442 35.5988 2.12088 35.5988 1.95921 35.5159C1.71672 35.433 1.71672 35.1841 1.95921 35.1012C2.12088 35.0183 2.4442 35.0183 2.68669 35.1012Z" fill="#16110D"/>
<path d="M4.62617 33.9394C4.86866 34.0224 4.86866 34.2712 4.62617 34.3541C4.38367 34.4371 4.06033 34.4371 3.89867 34.3541C3.65617 34.2712 3.65617 34.0224 3.89867 33.9394C4.14116 33.8565 4.4645 33.8565 4.62617 33.9394Z" fill="#16110D"/>
<path d="M6.56559 32.8607C6.80809 32.9436 6.80809 33.1925 6.56559 33.2754C6.3231 33.3583 5.99978 33.3583 5.83812 33.2754C5.59563 33.1925 5.59563 32.9436 5.83812 32.8607C6.08061 32.6948 6.40393 32.6948 6.56559 32.8607Z" fill="#16110D"/>
<path d="M8.5861 31.699C8.8286 31.7819 8.8286 32.0307 8.5861 32.1137C8.34361 32.1966 8.02029 32.1966 7.85863 32.1137C7.61613 32.0307 7.61613 31.7819 7.85863 31.699C8.02029 31.5331 8.34361 31.5331 8.5861 31.699Z" fill="#16110D"/>
<path d="M0.747235 33.9394C0.989729 34.0224 0.989729 34.2712 0.747235 34.3541C0.504742 34.4371 0.181423 34.4371 0.0197606 34.3541C-0.222733 34.2712 -0.222733 34.0224 0.0197606 33.9394C0.181423 33.8565 0.504742 33.8565 0.747235 33.9394Z" fill="#16110D"/>
<path d="M2.68669 32.7777C2.92918 32.8607 2.92918 33.1095 2.68669 33.1924C2.4442 33.2754 2.12088 33.2754 1.95921 33.1924C1.71672 33.1095 1.71672 32.8607 1.95921 32.7777C2.12088 32.6948 2.4442 32.6948 2.68669 32.7777Z" fill="#16110D"/>
<path d="M4.62617 31.6159C4.86866 31.6989 4.86866 31.9477 4.62617 32.0306C4.38367 32.1136 4.06033 32.1136 3.89867 32.0306C3.65617 31.9477 3.65617 31.6989 3.89867 31.6159C4.06033 31.533 4.38367 31.533 4.62617 31.6159Z" fill="#16110D"/>
<path d="M6.56559 30.4542C6.80809 30.5372 6.80809 30.786 6.56559 30.8689C6.3231 30.9519 5.99978 30.9519 5.83812 30.8689C5.59563 30.786 5.59563 30.5372 5.83812 30.4542C6.08061 30.3713 6.40393 30.3713 6.56559 30.4542Z" fill="#16110D"/>
<path d="M0.747235 31.6159C0.989729 31.6989 0.989729 31.9477 0.747235 32.0306C0.504742 32.1136 0.181423 32.1136 0.0197606 32.0306C-0.222733 31.9477 -0.222733 31.6989 0.0197606 31.6159C0.181423 31.533 0.504742 31.533 0.747235 31.6159Z" fill="#16110D"/>
<path d="M2.68669 30.4542C2.92918 30.5372 2.92918 30.786 2.68669 30.8689C2.4442 30.9519 2.12088 30.9519 1.95921 30.8689C1.71672 30.786 1.71672 30.5372 1.95921 30.4542C2.12088 30.3713 2.4442 30.3713 2.68669 30.4542Z" fill="#16110D"/>
<path d="M4.62617 29.2925C4.86866 29.3754 4.86866 29.6242 4.62617 29.7072C4.38367 29.7901 4.06033 29.7901 3.89867 29.7072C3.65617 29.6242 3.65617 29.3754 3.89867 29.2925C4.06033 29.2095 4.38367 29.2095 4.62617 29.2925Z" fill="#16110D"/>
<path d="M0.747235 29.2925C0.989729 29.3754 0.989729 29.6242 0.747235 29.7072C0.504742 29.7901 0.181423 29.7901 0.0197606 29.7072C-0.222733 29.6242 -0.222733 29.3754 0.0197606 29.2925C0.262254 29.2095 0.504742 29.2095 0.747235 29.2925Z" fill="#16110D"/>
<path d="M2.68669 28.2137C2.92918 28.2966 2.92918 28.5455 2.68669 28.6284C2.4442 28.7113 2.12088 28.7113 1.95921 28.6284C1.71672 28.5455 1.71672 28.2966 1.95921 28.2137C2.12088 28.0478 2.4442 28.0478 2.68669 28.2137Z" fill="#16110D"/>
<path d="M0.747235 27.0519C0.989729 27.1349 0.989729 27.3837 0.747235 27.4666C0.504742 27.5496 0.181423 27.5496 0.0197606 27.4666C-0.222733 27.3837 -0.222733 27.1349 0.0197606 27.0519C0.181423 26.8861 0.504742 26.8861 0.747235 27.0519C0.908898 27.1349 0.504742 26.8861 0.747235 27.0519Z" fill="#16110D"/>
<path d="M35.9801 43.0674C36.2226 43.1504 36.2226 43.3992 35.9801 43.4821C35.7377 43.5651 35.4143 43.5651 35.2527 43.4821C35.0102 43.3992 35.0102 43.1504 35.2527 43.0674C35.4952 42.9845 35.8185 42.9845 35.9801 43.0674Z" fill="#16110D"/>
<path d="M37.9191 41.9057C38.1616 41.9886 38.1616 42.2374 37.9191 42.3204C37.6766 42.4033 37.3533 42.4033 37.1916 42.3204C36.9491 42.2374 36.9491 41.9886 37.1916 41.9057C37.4341 41.8227 37.7574 41.8227 37.9191 41.9057Z" fill="#16110D"/>
<path d="M39.9401 40.7439C40.1826 40.8269 40.1826 41.0757 39.9401 41.1586C39.6976 41.2416 39.3743 41.2416 39.2126 41.1586C39.051 41.0757 38.9701 40.8269 39.2126 40.7439C39.3743 40.661 39.6976 40.661 39.9401 40.7439Z" fill="#16110D"/>
<path d="M41.8796 39.5822C42.1221 39.6651 42.1221 39.914 41.8796 39.9969C41.6371 40.0798 41.3137 40.0798 41.1521 39.9969C40.9096 39.914 40.9096 39.6651 41.1521 39.5822C41.3137 39.4993 41.6371 39.4993 41.8796 39.5822Z" fill="#16110D"/>
<path d="M43.8181 38.4205C44.0606 38.5034 44.0606 38.7522 43.8181 38.8352C43.5756 38.9181 43.2522 38.9181 43.0906 38.8352C42.8481 38.7522 42.8481 38.5034 43.0906 38.4205C43.2522 38.3375 43.5756 38.3375 43.8181 38.4205Z" fill="#16110D"/>
<path d="M32.1018 43.0674C32.3442 43.1504 32.3442 43.3992 32.1018 43.4821C31.8593 43.5651 31.5359 43.5651 31.3743 43.4821C31.1318 43.3992 31.1318 43.1504 31.3743 43.0674C31.5359 42.9845 31.8593 42.9845 32.1018 43.0674Z" fill="#16110D"/>
<path d="M34.0407 41.9057C34.2832 41.9886 34.2832 42.2374 34.0407 42.3204C33.7982 42.4033 33.4749 42.4033 33.3132 42.3204C33.0707 42.2374 33.0707 41.9886 33.3132 41.9057C33.4749 41.8227 33.879 41.8227 34.0407 41.9057Z" fill="#16110D"/>
<path d="M35.6566 41.3246C35.9691 41.3246 36.2225 41.1761 36.2225 40.9928C36.2225 40.8096 35.9691 40.6611 35.6566 40.6611C35.3442 40.6611 35.0908 40.8096 35.0908 40.9928C35.0908 41.1761 35.3442 41.3246 35.6566 41.3246Z" fill="#16110D"/>
<path d="M37.9191 39.5822C38.1616 39.6651 38.1616 39.914 37.9191 39.9969C37.6766 40.0798 37.3533 40.0798 37.1916 39.9969C36.9491 39.914 36.9491 39.6651 37.1916 39.5822C37.4341 39.4993 37.7574 39.4993 37.9191 39.5822Z" fill="#16110D"/>
<path d="M39.5355 39.0011C39.848 39.0011 40.1014 38.8525 40.1014 38.6693C40.1014 38.4861 39.848 38.3376 39.5355 38.3376C39.223 38.3376 38.9697 38.4861 38.9697 38.6693C38.9697 38.8525 39.223 39.0011 39.5355 39.0011Z" fill="#16110D"/>
<path d="M41.8796 37.2587C42.1221 37.3417 42.1221 37.5905 41.8796 37.6734C41.6371 37.7564 41.3137 37.7564 41.1521 37.6734C40.9096 37.5905 40.9096 37.3417 41.1521 37.2587C41.3137 37.1758 41.6371 37.1758 41.8796 37.2587Z" fill="#16110D"/>
<path d="M43.818 36.097C44.0605 36.1799 44.0605 36.4287 43.818 36.5117C43.5756 36.5946 43.2522 36.5946 43.0905 36.5117C42.9289 36.4287 42.8481 36.1799 43.0905 36.097C43.2522 36.0141 43.5756 36.0141 43.818 36.097Z" fill="#16110D"/>
<path d="M28.2223 43.0674C28.4648 43.1504 28.4648 43.3992 28.2223 43.4821C27.9798 43.5651 27.6565 43.5651 27.4949 43.4821C27.2524 43.3992 27.2524 43.1504 27.4949 43.0674C27.6565 42.9845 27.9798 42.9845 28.2223 43.0674Z" fill="#16110D"/>
<path d="M30.1618 41.9057C30.4043 41.9886 30.4043 42.2374 30.1618 42.3204C29.9193 42.4033 29.596 42.4033 29.4343 42.3204C29.1918 42.2374 29.1918 41.9886 29.4343 41.9057C29.596 41.8227 29.9193 41.8227 30.1618 41.9057Z" fill="#16110D"/>
<path d="M32.1018 40.7439C32.3442 40.8269 32.3442 41.0757 32.1018 41.1586C31.8593 41.2416 31.5359 41.2416 31.3743 41.1586C31.1318 41.0757 31.1318 40.8269 31.3743 40.7439C31.5359 40.661 31.8593 40.661 32.1018 40.7439Z" fill="#16110D"/>
<path d="M34.0407 39.5822C34.2832 39.6651 34.2832 39.914 34.0407 39.9969C33.7982 40.0798 33.4749 40.0798 33.3132 39.9969C33.0707 39.914 33.0707 39.6651 33.3132 39.5822C33.5557 39.4993 33.879 39.4993 34.0407 39.5822Z" fill="#16110D"/>
<path d="M35.6566 39.0011C35.9691 39.0011 36.2225 38.8525 36.2225 38.6693C36.2225 38.4861 35.9691 38.3376 35.6566 38.3376C35.3442 38.3376 35.0908 38.4861 35.0908 38.6693C35.0908 38.8525 35.3442 39.0011 35.6566 39.0011Z" fill="#16110D"/>
<path d="M37.9191 37.2587C38.1616 37.3417 38.1616 37.5905 37.9191 37.6734C37.6766 37.7564 37.3533 37.7564 37.1916 37.6734C36.9491 37.5905 36.9491 37.3417 37.1916 37.2587C37.4341 37.1758 37.7574 37.1758 37.9191 37.2587Z" fill="#16110D"/>
<path d="M39.9401 36.097C40.1826 36.1799 40.1826 36.4287 39.9401 36.5117C39.6976 36.5946 39.3743 36.5946 39.2126 36.5117C38.9701 36.4287 38.9701 36.1799 39.2126 36.097C39.3743 36.0141 39.6976 36.0141 39.9401 36.097Z" fill="#16110D"/>
<path d="M41.475 35.5158C41.7875 35.5158 42.0408 35.3673 42.0408 35.1841C42.0408 35.0008 41.7875 34.8523 41.475 34.8523C41.1625 34.8523 40.9092 35.0008 40.9092 35.1841C40.9092 35.3673 41.1625 35.5158 41.475 35.5158Z" fill="#16110D"/>
<path d="M43.4145 34.3541C43.727 34.3541 43.9803 34.2056 43.9803 34.0223C43.9803 33.8391 43.727 33.6906 43.4145 33.6906C43.102 33.6906 42.8486 33.8391 42.8486 34.0223C42.8486 34.2056 43.102 34.3541 43.4145 34.3541Z" fill="#16110D"/>
<path d="M24.2624 43.0674C24.5049 43.1504 24.5049 43.3992 24.2624 43.4821C24.0199 43.5651 23.6966 43.5651 23.5349 43.4821C23.2924 43.3992 23.2924 43.1504 23.5349 43.0674C23.7774 42.9845 24.1007 42.9845 24.2624 43.0674Z" fill="#16110D"/>
<path d="M26.2023 41.9057C26.4448 41.9886 26.4448 42.2374 26.2023 42.3204C25.9598 42.4033 25.6365 42.4033 25.4748 42.3204C25.2323 42.2374 25.2323 41.9886 25.4748 41.9057C25.7173 41.8227 26.0407 41.8227 26.2023 41.9057Z" fill="#16110D"/>
<path d="M28.2223 40.7439C28.4648 40.8269 28.4648 41.0757 28.2223 41.1586C27.9798 41.2416 27.6565 41.2416 27.4949 41.1586C27.2524 41.0757 27.2524 40.8269 27.4949 40.7439C27.7374 40.661 27.9798 40.661 28.2223 40.7439Z" fill="#16110D"/>
<path d="M30.1618 39.5822C30.4043 39.6651 30.4043 39.914 30.1618 39.9969C29.9193 40.0798 29.596 40.0798 29.4343 39.9969C29.1918 39.914 29.1918 39.6651 29.4343 39.5822C29.596 39.4993 29.9193 39.4993 30.1618 39.5822Z" fill="#16110D"/>
<path d="M32.1018 38.4205C32.3442 38.5034 32.3442 38.7522 32.1018 38.8352C31.8593 38.9181 31.5359 38.9181 31.3743 38.8352C31.1318 38.7522 31.1318 38.5034 31.3743 38.4205C31.5359 38.3375 31.8593 38.3375 32.1018 38.4205Z" fill="#16110D"/>
<path d="M34.0407 37.2587C34.2832 37.3417 34.2832 37.5905 34.0407 37.6734C33.7982 37.7564 33.4749 37.7564 33.3132 37.6734C33.0707 37.5905 33.0707 37.3417 33.3132 37.2587C33.4749 37.1758 33.879 37.1758 34.0407 37.2587Z" fill="#16110D"/>
<path d="M35.9801 36.097C36.2226 36.1799 36.2226 36.4287 35.9801 36.5117C35.7377 36.5946 35.4143 36.5946 35.2527 36.5117C35.0102 36.4287 35.0102 36.1799 35.2527 36.097C35.4952 36.0141 35.8185 36.0141 35.9801 36.097Z" fill="#16110D"/>
<path d="M37.9191 34.9353C38.1616 35.0182 38.1616 35.267 37.9191 35.3499C37.6766 35.4329 37.3533 35.4329 37.1916 35.3499C36.9491 35.267 36.9491 35.0182 37.1916 34.9353C37.4341 34.8523 37.7574 34.8523 37.9191 34.9353Z" fill="#16110D"/>
<path d="M39.9401 33.7735C40.1826 33.8564 40.1826 34.1053 39.9401 34.1882C39.6976 34.2711 39.3743 34.2711 39.2126 34.1882C38.9701 34.1053 38.9701 33.8564 39.2126 33.7735C39.3743 33.6906 39.6976 33.6906 39.9401 33.7735Z" fill="#16110D"/>
<path d="M41.8796 32.6118C42.1221 32.6947 42.1221 32.9435 41.8796 33.0265C41.6371 33.1094 41.3137 33.1094 41.1521 33.0265C40.9096 32.9435 40.9096 32.6947 41.1521 32.6118C41.3946 32.5288 41.6371 32.5288 41.8796 32.6118Z" fill="#16110D"/>
<path d="M19.9799 43.648C20.2924 43.648 20.5457 43.4995 20.5457 43.3163C20.5457 43.133 20.2924 42.9845 19.9799 42.9845C19.6674 42.9845 19.4141 43.133 19.4141 43.3163C19.4141 43.4995 19.6674 43.648 19.9799 43.648Z" fill="#16110D"/>
<path d="M22.3229 41.9056C22.5654 41.9886 22.5654 42.2374 22.3229 42.3203C22.0804 42.4033 21.7571 42.4033 21.5954 42.3203C21.4338 42.2374 21.3529 41.9886 21.5954 41.9056C21.7571 41.7398 22.0804 41.7398 22.3229 41.9056Z" fill="#16110D"/>
<path d="M24.2624 40.7439C24.5049 40.8269 24.5049 41.0757 24.2624 41.1586C24.0199 41.2416 23.6966 41.2416 23.5349 41.1586C23.2924 41.0757 23.2924 40.8269 23.5349 40.7439C23.6966 40.661 24.0199 40.661 24.2624 40.7439Z" fill="#16110D"/>
<path d="M26.2023 39.5822C26.4448 39.6651 26.4448 39.914 26.2023 39.9969C25.9598 40.0798 25.6365 40.0798 25.4748 39.9969C25.2323 39.914 25.2323 39.6651 25.4748 39.5822C25.6365 39.4993 26.0407 39.4993 26.2023 39.5822Z" fill="#16110D"/>
<path d="M28.1418 38.4205C28.3843 38.5034 28.3843 38.7522 28.1418 38.8352C27.8993 38.9181 27.576 38.9181 27.4143 38.8352C27.1718 38.7522 27.1718 38.5034 27.4143 38.4205C27.6568 38.3375 27.9801 38.3375 28.1418 38.4205Z" fill="#16110D"/>
<path d="M30.1618 37.2587C30.4043 37.3417 30.4043 37.5905 30.1618 37.6734C29.9193 37.7564 29.596 37.7564 29.4343 37.6734C29.1918 37.5905 29.1918 37.3417 29.4343 37.2587C29.596 37.1758 29.9193 37.1758 30.1618 37.2587Z" fill="#16110D"/>
<path d="M32.1018 36.097C32.3442 36.1799 32.3442 36.4287 32.1018 36.5117C31.8593 36.5946 31.5359 36.5946 31.3743 36.5117C31.1318 36.4287 31.1318 36.1799 31.3743 36.097C31.5359 36.0141 31.8593 36.0141 32.1018 36.097Z" fill="#16110D"/>
<path d="M34.0407 34.9353C34.2832 35.0182 34.2832 35.267 34.0407 35.3499C33.7982 35.4329 33.4749 35.4329 33.3132 35.3499C33.0707 35.267 33.0707 35.0182 33.3132 34.9353C33.4749 34.8523 33.7982 34.8523 34.0407 34.9353Z" fill="#16110D"/>
<path d="M35.9801 33.7735C36.2226 33.8564 36.2226 34.1053 35.9801 34.1882C35.7377 34.2711 35.4143 34.2711 35.2527 34.1882C35.0102 34.1053 35.0102 33.8564 35.2527 33.7735C35.4143 33.6906 35.8185 33.6906 35.9801 33.7735Z" fill="#16110D"/>
<path d="M37.9191 32.6118C38.1616 32.6947 38.1616 32.9435 37.9191 33.0265C37.6766 33.1094 37.3533 33.1094 37.1916 33.0265C36.9491 32.9435 36.9491 32.6947 37.1916 32.6118C37.4341 32.5288 37.7574 32.5288 37.9191 32.6118Z" fill="#16110D"/>
<path d="M39.132 31.45C39.3745 31.3671 39.6978 31.3671 39.8595 31.45C40.102 31.533 40.102 31.7818 39.8595 31.8647C39.617 31.9477 39.2937 31.9477 39.132 31.8647C38.9703 31.7818 38.9703 31.6159 39.132 31.45C39.2937 31.2841 38.9703 31.6159 39.132 31.45Z" fill="#16110D"/>
<path d="M16.4245 43.0674C16.667 43.1503 16.667 43.3992 16.4245 43.4821C16.182 43.565 15.8587 43.565 15.697 43.4821C15.4545 43.3992 15.4545 43.1503 15.697 43.0674C15.9395 42.9015 16.2628 42.9015 16.4245 43.0674Z" fill="#16110D"/>
<path d="M18.3635 41.9056C18.606 41.9886 18.606 42.2374 18.3635 42.3203C18.121 42.4033 17.7976 42.4033 17.636 42.3203C17.3935 42.2374 17.3935 41.9886 17.636 41.9056C17.8785 41.7398 18.2018 41.7398 18.3635 41.9056Z" fill="#16110D"/>
<path d="M19.9799 41.3246C20.2924 41.3246 20.5457 41.1761 20.5457 40.9928C20.5457 40.8096 20.2924 40.6611 19.9799 40.6611C19.6674 40.6611 19.4141 40.8096 19.4141 40.9928C19.4141 41.1761 19.6674 41.3246 19.9799 41.3246Z" fill="#16110D"/>
<path d="M22.3234 39.5822C22.5659 39.6651 22.5659 39.914 22.3234 39.9969C22.0809 40.0798 21.7576 40.0798 21.5959 39.9969C21.3534 39.914 21.3534 39.6651 21.5959 39.5822C21.7576 39.4993 22.0809 39.4993 22.3234 39.5822Z" fill="#16110D"/>
<path d="M23.8588 39.0011C24.1713 39.0011 24.4246 38.8525 24.4246 38.6693C24.4246 38.4861 24.1713 38.3376 23.8588 38.3376C23.5463 38.3376 23.293 38.4861 23.293 38.6693C23.293 38.8525 23.5463 39.0011 23.8588 39.0011Z" fill="#16110D"/>
<path d="M26.2023 37.2587C26.4448 37.3417 26.4448 37.5905 26.2023 37.6734C25.9598 37.7564 25.6365 37.7564 25.4748 37.6734C25.2323 37.5905 25.2323 37.3417 25.4748 37.2587C25.6365 37.1758 26.0407 37.1758 26.2023 37.2587Z" fill="#16110D"/>
<path d="M28.1418 36.097C28.3843 36.1799 28.3843 36.4287 28.1418 36.5117C27.8993 36.5946 27.576 36.5946 27.4143 36.5117C27.1718 36.4287 27.1718 36.1799 27.4143 36.097C27.6568 36.0141 27.9801 36.0141 28.1418 36.097Z" fill="#16110D"/>
<path d="M12.5456 43.0674C12.7881 43.1503 12.7881 43.3992 12.5456 43.4821C12.3031 43.565 11.9798 43.565 11.8181 43.4821C11.5756 43.3992 11.5756 43.1503 11.8181 43.0674C11.9798 42.9015 12.3031 42.9015 12.5456 43.0674Z" fill="#16110D"/>
<path d="M14.4855 41.9056C14.728 41.9886 14.728 42.2374 14.4855 42.3203C14.243 42.4033 13.9197 42.4033 13.758 42.3203C13.5155 42.2374 13.5155 41.9886 13.758 41.9056C13.9197 41.7398 14.3239 41.7398 14.4855 41.9056Z" fill="#16110D"/>
<path d="M16.4245 40.7439C16.667 40.8269 16.667 41.0757 16.4245 41.1586C16.182 41.2416 15.8587 41.2416 15.697 41.1586C15.4545 41.0757 15.4545 40.8269 15.697 40.7439C15.9395 40.661 16.2628 40.661 16.4245 40.7439Z" fill="#16110D"/>
<path d="M18.3635 39.5822C18.606 39.6651 18.606 39.914 18.3635 39.9969C18.121 40.0798 17.7976 40.0798 17.636 39.9969C17.3935 39.914 17.3935 39.6651 17.636 39.5822C17.8785 39.4993 18.2018 39.4993 18.3635 39.5822Z" fill="#16110D"/>
<path d="M20.385 38.4205C20.6274 38.5034 20.6274 38.7522 20.385 38.8352C20.1425 38.9181 19.8191 38.9181 19.6575 38.8352C19.415 38.7522 19.415 38.5034 19.6575 38.4205C19.8191 38.3375 20.1425 38.3375 20.385 38.4205Z" fill="#16110D"/>
<path d="M22.3234 37.2587C22.5659 37.3417 22.5659 37.5905 22.3234 37.6734C22.0809 37.7564 21.7576 37.7564 21.5959 37.6734C21.3534 37.5905 21.3534 37.3417 21.5959 37.2587C21.7576 37.1758 22.0809 37.1758 22.3234 37.2587Z" fill="#16110D"/>
<path d="M7.85904 43.0674C8.10153 42.9845 8.42485 42.9845 8.58651 43.0674C8.82901 43.1504 8.82901 43.3992 8.58651 43.4821C8.34402 43.5651 8.0207 43.5651 7.85904 43.4821C7.69738 43.3992 7.69738 43.1504 7.85904 43.0674Z" fill="#16110D"/>
<path d="M10.6061 41.9056C10.8486 41.9886 10.8486 42.2374 10.6061 42.3203C10.3636 42.4033 10.0403 42.4033 9.87865 42.3203C9.63615 42.2374 9.63615 41.9886 9.87865 41.9056C10.0403 41.7398 10.3636 41.7398 10.6061 41.9056Z" fill="#16110D"/>
<path d="M12.5456 40.7439C12.7881 40.8269 12.7881 41.0757 12.5456 41.1586C12.3031 41.2416 11.9798 41.2416 11.8181 41.1586C11.5756 41.0757 11.5756 40.8269 11.8181 40.7439C11.9798 40.661 12.3031 40.661 12.5456 40.7439Z" fill="#16110D"/>
<path d="M14.4855 39.5822C14.728 39.6651 14.728 39.914 14.4855 39.9969C14.243 40.0798 13.9197 40.0798 13.758 39.9969C13.5155 39.914 13.5155 39.6651 13.758 39.5822C13.9197 39.4993 14.3239 39.4993 14.4855 39.5822Z" fill="#16110D"/>
<path d="M16.1014 39.0011C16.4139 39.0011 16.6673 38.8525 16.6673 38.6693C16.6673 38.4861 16.4139 38.3376 16.1014 38.3376C15.789 38.3376 15.5356 38.4861 15.5356 38.6693C15.5356 38.8525 15.789 39.0011 16.1014 39.0011Z" fill="#16110D"/>
<path d="M18.3635 37.2587C18.606 37.3417 18.606 37.5905 18.3635 37.6734C18.121 37.7564 17.7976 37.7564 17.636 37.6734C17.3935 37.5905 17.3935 37.3417 17.636 37.2587C17.8785 37.1758 18.2018 37.1758 18.3635 37.2587Z" fill="#16110D"/>
<path d="M19.9799 36.6776C20.2924 36.6776 20.5457 36.529 20.5457 36.3458C20.5457 36.1626 20.2924 36.014 19.9799 36.014C19.6674 36.014 19.4141 36.1626 19.4141 36.3458C19.4141 36.529 19.6674 36.6776 19.9799 36.6776Z" fill="#16110D"/>
<path d="M5.59668 14.5218V16.2644L36.3847 34.4374V32.7777L5.59668 14.5218Z" fill="#FFBE2E"/>
<path d="M36.3862 32.7782L5.59814 14.5223L9.31534 12.3647L40.1034 30.5377L36.3862 32.7782Z" fill="#FFBE2E"/>
<path d="M36.3847 32.7772L6.24316 14.8532L9.31387 13.0276L39.5362 30.9516L36.3847 32.7772Z" fill="#FFEECC"/>
<path d="M40.3438 30.7032V30.4542L40.1014 30.2883L9.47499 12.1153L9.39418 12.0323L5.67699 14.1898L5.43457 14.3558V14.6047V16.3473L36.2226 34.5203L36.465 34.6863L36.7074 34.5203L40.4246 32.3628V30.7032H40.3438ZM39.6165 30.5372L38.7276 31.0351L36.3842 32.4458L25.4751 25.9732L6.08103 14.4388L9.31337 12.5302L39.6165 30.5372ZM5.83861 16.0984V14.8537L36.1418 32.8607V34.0224L5.83861 16.0984Z" fill="#16110D"/>
<path d="M0.587402 17.2602V19.0028L31.3754 37.2588V35.5162L0.587402 17.2602Z" fill="#FFBE2E"/>
<path d="M31.3744 35.5167L0.586426 17.2607L4.30359 15.1032L35.0916 33.3591L31.3744 35.5167Z" fill="#FFBE2E"/>
<path d="M31.3745 35.5156L1.23291 17.6746L4.30362 15.849L34.526 33.773L31.3745 35.5156Z" fill="#FFEECC"/>
<path d="M35.252 33.4416V33.1926L35.0096 33.0267L4.3832 14.8537L4.30238 14.7707L0.585214 16.9282L0.342773 17.0942V17.3432V19.0858L31.1308 37.3417L31.3732 37.5077L31.6157 37.3417L35.3328 35.1842V33.4416H35.252ZM34.6055 33.3586L33.7167 33.8565L31.3732 35.2672L20.4641 28.7946L1.07004 17.2602L4.30238 15.3516L34.6055 33.3586ZM0.827629 18.9198V17.6751L31.1308 35.6821V36.8438L0.827629 18.9198Z" fill="#16110D"/>
<path d="M-4.42285 20.2476V21.9902L26.3652 40.1632V38.5035L-4.42285 20.2476Z" fill="#FFBE2E"/>
<path d="M26.3652 38.504L-4.42285 20.248L-0.705658 18.0905L30.0016 36.3465L26.3652 38.504Z" fill="#FFBE2E"/>
<path d="M26.3637 38.5029L-3.77783 20.6619L-0.707096 18.8363L29.5153 36.7603L26.3637 38.5029Z" fill="#FFEECC"/>
<path d="M30.2427 36.429V36.18L30.0003 36.0141L-0.626081 17.8411L-0.706895 17.7581L-4.42409 19.9156L-4.6665 20.0816V20.3305V22.0732L26.1215 40.2461L26.3639 40.4121L26.6064 40.2461L30.3235 38.0886V36.429H30.2427ZM29.5963 36.346L28.7074 36.8439L26.3639 38.2546L15.4548 31.782L-3.93923 20.2476L-0.706895 18.339L29.5963 36.346ZM-4.18167 21.9072V20.6625L26.1215 38.6695V39.8312L-4.18167 21.9072Z" fill="#16110D"/>
<path d="M-9.43311 23.2349V24.9775L21.3549 43.2335V41.4909L-9.43311 23.2349Z" fill="#FFBE2E"/>
<path d="M21.3554 41.4914L-9.43262 23.2354L-5.79624 21.0779L24.9918 39.3338L21.3554 41.4914Z" fill="#FFBE2E"/>
<path d="M21.3542 41.4903L-8.86816 23.6493L-5.79745 21.8237L24.5057 39.7477L21.3542 41.4903Z" fill="#FFEECC"/>
<path d="M25.233 39.4163V39.1674L24.9906 39.0014L-5.63585 20.8284L-5.71666 20.7455L-9.43385 22.903L-9.67627 23.0689V23.3179V25.0605L21.1118 43.2335L21.3542 43.3994L21.5966 43.2335L25.3138 41.076V39.4163H25.233ZM24.5865 39.3333L23.6976 39.8312L21.3542 41.2419L10.445 34.7694L-8.949 23.2349L-5.71666 21.3263L24.5865 39.3333ZM-9.19141 24.8945V23.6498L21.1118 41.6568V42.8186L-9.19141 24.8945Z" fill="#16110D"/>
<path d="M5.59668 8.96201V10.7876L36.3847 28.9606V27.218L5.59668 8.96201Z" fill="#FFBE2E"/>
<path d="M36.3862 27.2184L5.59814 8.9624L9.31534 6.80487L40.1034 25.0608L36.3862 27.2184Z" fill="#FFBE2E"/>
<path d="M36.3847 27.2175L6.24316 9.37644L9.31387 7.55084L39.5362 25.4749L36.3847 27.2175Z" fill="#FFEECC"/>
<path d="M40.3438 25.2264V24.9775L40.1014 24.8115L9.47499 6.63852L9.39418 6.55554L5.67699 8.71306L5.43457 8.87903V9.12797V10.8706L36.2226 29.0436L36.465 29.2095L36.7074 29.0436L40.4246 26.886V25.2264H40.3438ZM39.6165 25.0605L38.7276 25.5583L36.3842 26.969L25.4751 20.4965L6.08103 8.96201L9.31337 7.05343L39.6165 25.0605ZM5.83861 10.6216V9.37692L36.1418 27.3839V28.5457L5.83861 10.6216Z" fill="#16110D"/>
<path d="M0.587402 11.7834V13.526L31.3754 31.699V30.0394L0.587402 11.7834Z" fill="#FFBE2E"/>
<path d="M31.3744 30.0397L0.586426 11.7837L4.30359 9.54324L35.0916 27.7992L31.3744 30.0397Z" fill="#FFBE2E"/>
<path d="M31.3745 30.0388L1.23291 12.1148L4.30362 10.2892L34.526 28.2132L31.3745 30.0388Z" fill="#FFEECC"/>
<path d="M35.252 27.9649V27.7159L35.0096 27.5499L4.3832 9.37696L4.30238 9.29398L0.585214 11.4515L0.342773 11.6175V11.8664V13.609L31.1308 31.865L31.3732 32.0309L31.6157 31.865L35.3328 29.7075V27.9649H35.252ZM34.6055 27.7989L33.7167 28.2968L31.3732 29.7075L20.4641 23.2349L1.07004 11.7004L4.30238 9.79187L34.6055 27.7989ZM0.827629 13.3601V12.1154L31.1308 30.1224V31.2841L0.827629 13.3601Z" fill="#16110D"/>
<path d="M-4.42285 14.7707V16.5133L26.3652 34.6863V33.0267L-4.42285 14.7707Z" fill="#FFBE2E"/>
<path d="M26.3652 33.0271L-4.42285 14.7711L-0.705658 12.5306L30.0016 30.7866L26.3652 33.0271Z" fill="#FFBE2E"/>
<path d="M26.3637 33.0262L-3.77783 15.1022L-0.707096 13.2766L29.5153 31.2006L26.3637 33.0262Z" fill="#FFEECC"/>
<path d="M30.2427 30.9522V30.7032L30.0003 30.5372L-0.626081 12.3643L-0.706895 12.2813L-4.42409 14.4388L-4.6665 14.6048V14.8537V16.5963L26.1215 34.7693L26.3639 34.9353L26.6064 34.7693L30.3235 32.6118V30.9522H30.2427ZM29.5963 30.7862L28.7074 31.2841L26.3639 32.6948L15.4548 26.2222L-3.93923 14.6877L-0.706895 12.7792L29.5963 30.7862ZM-4.18167 16.3474V15.1027L26.1215 33.1097V34.2714L-4.18167 16.3474Z" fill="#16110D"/>
<path d="M-9.43311 17.7581V19.5007L21.3549 37.6737V36.0141L-9.43311 17.7581Z" fill="#FFBE2E"/>
<path d="M21.3554 36.0145L-9.43262 17.7586L-5.79624 15.601L24.9918 33.774L21.3554 36.0145Z" fill="#FFBE2E"/>
<path d="M21.3542 36.0135L-8.86816 18.0895L-5.79745 16.2639L24.5057 34.1879L21.3542 36.0135Z" fill="#FFEECC"/>
<path d="M25.233 33.9395V33.6906L24.9906 33.5246L-5.63585 15.3517L-5.71666 15.2687L-9.43385 17.4262L-9.67627 17.5922V17.8411V19.5837L21.1118 37.7567L21.3542 37.9227L21.5966 37.7567L25.3138 35.5992V33.9395H25.233ZM24.5865 33.7736L23.6976 34.2715L21.3542 35.6822L10.445 29.2096L-8.949 17.6751L-5.71666 15.7666L24.5865 33.7736ZM-9.19141 19.3348V18.0901L21.1118 36.0971V37.2588L-9.19141 19.3348Z" fill="#16110D"/>
<path d="M13.0312 36.5949V32.7778L17.6373 35.5162V39.3333L13.0312 36.5949Z" fill="#FFBE2E"/>
<path d="M20.868 37.4247L17.8781 35.6821V35.4331L12.7871 32.3628V36.7609L17.8781 39.7482V39.2503L20.868 37.4247ZM17.3932 38.9184L13.1912 36.4289V33.1097L17.3932 35.5991V38.9184Z" fill="#16110D"/>
<path d="M1.71756 26.0562L-1.27236 24.3136V24.1476L-6.36328 21.0773V25.3094L-1.27236 28.3797V27.8818L1.71756 26.0562ZM-1.75721 27.5499L-5.95924 25.0604V21.8241L-1.75721 24.3136V27.5499Z" fill="#16110D"/>
<path d="M3.17188 30.7032V26.9691L7.85878 29.7904V33.5246L3.17188 30.7032Z" fill="#FFBE2E"/>
<path d="M11.0916 31.616L8.10167 29.8734V29.7075L3.01074 26.6371V30.8692L8.10167 33.9395V33.4416L11.0916 31.616ZM7.61681 33.1097L3.41478 30.6203V27.384L7.61681 29.8734V33.1097Z" fill="#16110D"/>
<path d="M7.61746 21.8242L-0.948242 16.7623V6.63852L7.61746 11.7004V21.8242Z" fill="#FFBE2E"/>
<path d="M16.1846 6.63891L7.61892 11.7008L-0.946777 6.63891L7.61892 1.57703L16.1846 6.63891Z" fill="#FFBE2E"/>
<path d="M16.1822 8.38018L9.15188 12.5293L0.666992 7.46738L7.61652 3.3183L16.1822 8.38018Z" fill="#FFEECC"/>
<path d="M7.61671 1.32773L-0.948991 6.38961L-1.19141 6.55557V16.9283L7.37429 21.9902L7.61671 22.1561L7.85915 21.9902L16.4248 16.9283V6.80452V6.47259L7.61671 1.32773ZM7.61671 1.9086L15.6976 6.63855L11.6571 9.04502L7.61671 11.4515L6.32377 10.7047L-0.464135 6.72154L7.61671 1.9086ZM-0.706551 16.5964V7.13644L7.37429 11.8664V21.4093L-0.706551 16.5964Z" fill="#16110D"/>
<path d="M34.6079 8.54758L20.7897 0.332397L6.89062 8.54758V25.0609L20.7897 33.2761V16.8457L34.6079 8.54758Z" fill="#FFEECC"/>
<path d="M6.88867 24.9775L20.7877 33.1927V16.7623L6.88867 8.54712V24.9775Z" fill="#FFBE2E"/>
<path d="M34.9302 8.38115L20.7887 0L6.64722 8.38115H6.56641V8.71307V25.2264L20.4654 33.4416L20.7079 33.6076L20.9503 33.4416L34.6877 25.3094L34.8494 25.2264V8.71307L34.9302 8.38115ZM20.7887 0.663856L27.3342 4.56399L14.0008 12.4472L7.4553 8.54711L20.7887 0.663856ZM20.4654 32.7778L7.13205 24.8945V9.12798L20.4654 17.0112V32.7778ZM26.4453 13.1111L20.7887 16.4304L14.2432 12.5302L27.5766 4.64698L34.1221 8.54711L26.4453 13.1111Z" fill="#16110D"/>
<path d="M15.2926 16.8453L12.7068 15.3516C12.3835 15.1856 12.1411 15.1856 11.8987 15.2686C11.6562 15.4346 11.4946 15.7665 11.4946 16.1814C11.4946 16.9283 11.8987 17.6751 12.4643 18.007L15.0502 19.5007C15.2118 19.5837 15.3734 19.6666 15.5351 19.6666C15.6967 19.6666 15.7775 19.6666 15.8583 19.5837C16.1007 19.4177 16.2623 19.0858 16.2623 18.6709C16.1815 17.924 15.7775 17.1772 15.2926 16.8453ZM15.5351 19.0858C15.4542 19.1688 15.3734 19.0858 15.2926 19.0028L12.7068 17.5091C12.3027 17.2602 12.0603 16.6793 12.0603 16.1814C12.0603 15.9325 12.1411 15.7665 12.2219 15.7665C12.3027 15.6835 12.3835 15.7665 12.4643 15.8495L12.6259 15.9325C12.7068 16.5133 13.03 17.1772 13.5148 17.4261L15.6967 18.7538C15.6158 18.9198 15.5351 19.0858 15.5351 19.0858Z" fill="#16110D"/>
<path d="M4.4656 50.3699L-4.1001 45.308V35.1013L4.4656 40.1631V50.3699Z" fill="#FFBE2E"/>
<path d="M13.0318 35.1016L4.46609 40.1635L-4.09961 35.1016L4.46609 30.0398L13.0318 35.1016Z" fill="#FFBE2E"/>
<path d="M13.0296 36.9258L5.99929 40.9919L-2.56641 35.93L4.46394 31.8639L13.0296 36.9258Z" fill="#FFEECC"/>
<path d="M4.46437 29.7904L-4.10133 34.8523L-4.34375 35.0183V45.4739L4.22195 50.5358L4.46437 50.7018L4.70678 50.5358L13.2725 45.4739V35.2672V34.9353L4.46437 29.7904ZM4.46437 30.3713L12.5452 35.1012L8.50479 37.5077L4.46437 39.9142L3.17143 39.1673L-3.61648 35.1842L4.46437 30.3713ZM-3.85889 45.142V35.5991L4.22195 40.3291V49.872L-3.85889 45.142Z" fill="#16110D"/>
<path d="M2.36435 47.2995L1.07075 46.5527C0.828203 46.4697 0.666504 46.1378 0.666504 45.8059V44.3952C0.666504 44.1462 0.828203 43.9803 1.07075 44.0632L2.36435 44.8101C2.60689 44.8931 2.76859 45.225 2.76859 45.5569V46.9676C2.76859 47.2995 2.60689 47.4655 2.36435 47.2995Z" fill="#16110D"/>
</g>
</g>
</svg>
