<svg width="20" height="20" viewBox="0 0 20 20" fill="none" xmlns="http://www.w3.org/2000/svg">
<path d="M7.39111 7.45701V3.92776C7.39111 3.41275 6.97677 2.99563 6.46519 2.99563H3.88533C3.37375 2.99563 2.95941 3.41275 2.95941 3.92776V6.52489C2.95941 7.0399 3.37375 7.45701 3.88533 7.45701H7.39111ZM3.88533 1.13138H6.46519C7.99991 1.13138 9.24296 2.38392 9.24296 3.92776V8.38914C9.24296 8.90415 8.82862 9.32126 8.31704 9.32126H3.88533C2.35176 9.32126 1.10756 8.06989 1.10756 6.52489V3.92776C1.10756 2.38392 2.35176 1.13138 3.88533 1.13138ZM12.5926 2.79638V7.45701H17.2222C17.7338 7.45701 18.1481 7.0399 18.1481 6.52489V2.79638C18.1481 2.28137 17.7338 1.86425 17.2222 1.86425H13.5185C13.0081 1.86425 12.5926 2.28137 12.5926 2.79638ZM17.2222 0C18.7569 0 20 1.25254 20 2.79638V6.52489C20 8.06989 18.7569 9.32126 17.2222 9.32126H11.6667C11.1562 9.32126 10.7407 8.90415 10.7407 8.38914V2.79638C10.7407 1.25254 11.9849 0 13.5185 0H17.2222ZM12.5926 12.543V16.077C12.5926 16.592 13.0081 17.0091 13.5185 17.0091H16.1042C16.6158 17.0091 17.0301 16.592 17.0301 16.077V13.4752C17.0301 12.9602 16.6158 12.5431 16.1042 12.5431L12.5926 12.543ZM16.1043 18.8734H13.5186C11.9851 18.8734 10.7409 17.622 10.7409 16.077V11.6109C10.7409 11.0959 11.1564 10.6787 11.6668 10.6787H16.1044C17.638 10.6787 18.8822 11.9301 18.8822 13.4751V16.0769C18.8822 17.6219 17.638 18.8733 16.1044 18.8733L16.1043 18.8734ZM7.40741 12.543H2.77778C2.26619 12.543 1.85185 12.9601 1.85185 13.4751V17.2036C1.85185 17.7186 2.26619 18.1357 2.77778 18.1357H6.48148C6.99307 18.1357 7.40741 17.7186 7.40741 17.2036V12.543ZM2.77778 20C1.24421 20 0 18.7475 0 17.2036V13.4751C0 11.9301 1.24421 10.6787 2.77778 10.6787H8.33333C8.84492 10.6787 9.25926 11.0959 9.25926 11.6109V17.2036C9.25926 18.7475 8.01621 20 6.48148 20H2.77778Z" fill="#25282B"/>
</svg>
