<svg width="24" height="24" viewBox="0 0 24 24" fill="none" xmlns="http://www.w3.org/2000/svg">
<path d="M21.7501 12C21.7501 10.4091 21.1182 8.88292 19.9923 7.7578C18.8673 6.63186 17.341 5.99999 15.75 5.99999C15.4819 6.00093 15.2129 6.02062 14.9475 6.05999C14.715 4.2928 13.6022 2.76479 11.9917 2.00159C10.3811 1.23753 8.49298 1.34346 6.97786 2.28191C5.46286 3.22036 4.52722 4.86383 4.49338 6.64511C4.45963 8.4273 5.3315 10.1045 6.80993 11.1C5.45712 11.6765 4.30409 12.6375 3.49313 13.8648C2.68219 15.092 2.25 16.5293 2.25 18V21.75C2.25 21.9487 2.32875 22.14 2.46937 22.2806C2.61 22.4212 2.80125 22.5 2.99999 22.5H16.5C16.6987 22.5 16.89 22.4212 17.0306 22.2806C17.1712 22.14 17.25 21.9487 17.25 21.75V18V17.805C18.5372 17.4722 19.6771 16.7222 20.4919 15.6712C21.3066 14.6212 21.7491 13.3294 21.75 12L21.7501 12ZM20.1826 11.25H17.8651C17.5417 10.3604 16.697 9.76785 15.7501 9.76785C14.8032 9.76785 13.9586 10.3604 13.6351 11.25H11.3176C11.5632 9.84849 12.4576 8.64484 13.7289 8.0062C15.0011 7.36682 16.4992 7.36682 17.7715 8.0062C19.0427 8.64465 19.9371 9.84839 20.1828 11.25H20.1826ZM11.3175 12.75H13.635C13.8619 13.3866 14.3634 13.8882 15 14.115V16.4325C14.0803 16.276 13.2318 15.8381 12.5719 15.1781C11.9119 14.5181 11.4741 13.6697 11.3175 12.7501L11.3175 12.75ZM15.75 12.75C15.4463 12.75 15.1735 12.5672 15.0572 12.2869C14.941 12.0066 15.0057 11.6841 15.2194 11.4694C15.4341 11.2557 15.7566 11.191 16.0369 11.3072C16.3172 11.4235 16.5 11.6963 16.5 12C16.5 12.1988 16.4213 12.39 16.2807 12.5307C16.14 12.6713 15.9488 12.75 15.7501 12.75L15.75 12.75ZM6.00005 6.75004C5.96067 5.75536 6.31692 4.78598 6.99192 4.05484C7.66786 3.32358 8.60537 2.88952 9.6 2.85016C10.5946 2.8108 11.5641 3.16703 12.2952 3.84203C13.0265 4.51797 13.4605 5.45548 13.4999 6.45011C11.7439 7.16356 10.4286 8.66543 9.95244 10.5001H9.74994C8.75526 10.5001 7.80181 10.1054 7.09866 9.40137C6.3946 8.69824 5.99992 7.74482 5.99992 6.75009L6.00005 6.75004ZM15.75 21H3.75005V18C3.75005 16.4091 4.38192 14.8829 5.50786 13.7578C6.63286 12.6319 8.15914 12 9.7501 12C9.7501 13.5909 10.382 15.1171 11.5079 16.2422C12.6329 17.3682 14.1592 18 15.7501 18L15.75 21ZM16.5 16.4326V14.1151C17.1366 13.8882 17.6382 13.3867 17.865 12.7501H20.1825C20.026 13.6698 19.5882 14.5182 18.9282 15.1782C18.2682 15.8381 17.4197 16.276 16.5001 16.4326L16.5 16.4326Z" fill="#25282B"/>
</svg>
