<svg width="24" height="20" viewBox="0 0 24 20" fill="none" xmlns="http://www.w3.org/2000/svg">
<path d="M22.0534 5.75483C21.4986 4.79498 20.4783 4.20445 19.3732 4.20334H14.4509V0.849275C14.4509 0.379286 14.0723 0 13.6056 0H6.48087C4.7627 0 3.11396 0.685619 1.89867 1.90645C0.683385 3.12728 0 4.7838 0 6.51122V16.5686C0 17.0375 0.378647 17.4179 0.84532 17.4179H3.69715C4.08239 18.9373 5.44392 20 7.00347 20C8.56425 20 9.92575 18.9373 10.3109 17.4179H15.1155C15.5008 18.9373 16.8623 20 18.4219 20C19.9814 20 21.343 18.9373 21.7282 17.4179H23.1547C23.6214 17.4179 24 17.0375 24 16.5686V9.34214C23.9989 9.19175 23.9593 9.04356 23.8844 8.91419L22.0534 5.75483ZM18.421 13.1373C16.8625 13.1417 15.5033 14.2033 15.1158 15.7194H14.451V10.2246H22.31V15.7194H21.7288C21.3414 14.2022 19.9806 13.1406 18.421 13.1373ZM19.3709 5.88958L19.3698 5.89069C19.875 5.89179 20.3406 6.16382 20.5905 6.60394L21.7175 8.53691H14.4509V5.89066L19.3709 5.88958ZM6.48081 1.69841H12.7602V15.7191H10.3079C9.92262 14.2008 8.56109 13.1381 7.00153 13.1381C5.44076 13.1381 4.08039 14.2008 3.6952 15.7191H1.69087V6.51097C1.69087 5.23374 2.19608 4.0096 3.09424 3.10736C3.99239 2.20511 5.2105 1.69841 6.48081 1.69841ZM7.00254 18.3046C6.30361 18.3046 5.67404 17.881 5.40655 17.2319C5.13907 16.5828 5.28768 15.8363 5.78188 15.3409C6.27718 14.8444 7.02013 14.6962 7.66513 14.9661C8.31124 15.2359 8.73058 15.8695 8.72948 16.5717C8.72838 17.5283 7.95573 18.3046 7.00254 18.3046ZM18.4209 18.3046C17.722 18.3046 17.0924 17.881 16.825 17.233C16.5575 16.5839 16.705 15.8375 17.1992 15.3421C17.6934 14.8456 18.4363 14.6963 19.0813 14.965C19.7274 15.2337 20.1479 15.8662 20.1479 16.5684C20.1479 17.5272 19.3741 18.3046 18.4209 18.3046Z" fill="#25282B"/>
</svg>
