<svg width="40" height="40" viewBox="0 0 40 40" fill="none" xmlns="http://www.w3.org/2000/svg">
<path d="M6.42589 5.00021H0V35H6.42589V5.00021Z" fill="white"/>
<path d="M16.787 4.99994H10.3611V34.9998H16.787V4.99994Z" fill="white"/>
<path d="M10.4111 34.9998C10.4111 34.9998 10.9093 4.99994 40.0001 4.99994V11.4429C16.6876 11.4429 16.837 34.9998 16.837 34.9998H10.4111Z" fill="white"/>
<path d="M19.8254 34.9995C19.8254 34.9995 20.0247 15.0164 39.9998 15.0164V21.4593C25.2053 21.4593 26.2513 34.9995 26.2513 34.9995H19.8254Z" fill="white"/>
<path d="M35.7658 34.9996C38.0768 34.9996 39.9501 33.1066 39.9501 30.7714C39.9501 28.4363 38.0768 26.5433 35.7658 26.5433C33.4549 26.5433 31.5815 28.4363 31.5815 30.7714C31.5815 33.1066 33.4549 34.9996 35.7658 34.9996Z" fill="white"/>
</svg>
