<svg width="24" height="24" viewBox="0 0 24 24" fill="none" xmlns="http://www.w3.org/2000/svg">
<path fill-rule="evenodd" clip-rule="evenodd" d="M4.49995 2H19.3077C20.0221 2 20.7066 2.26938 21.2114 2.74893C21.7162 3.22847 21.9999 3.87883 21.9999 4.55749V21.3643C22.0047 21.6228 21.8662 21.8648 21.6345 22L5.84618 21.9854C5.61925 21.852 5.48078 21.6173 5.48078 21.3643V12.8841L3.13076 13.9802C2.89231 14.0925 2.61058 14.0797 2.38462 13.9473C2.15 13.8185 2.00481 13.5829 2 13.3262V4.37481C2.00197 3.06413 3.12013 2.00183 4.49995 2ZM3.53835 12.1426L5.46144 11.2292L5.46141 4.37486C5.46141 3.87067 5.03064 3.46146 4.49988 3.46146C3.96912 3.46146 3.53835 3.87067 3.53835 4.37486V12.1426ZM7.00006 20.1805H20.4617L20.4616 4.5575C20.4616 3.95192 19.9453 3.46141 19.3078 3.46141H6.80775C6.93467 3.75094 7.00006 4.06152 7.00006 4.37481V20.1805ZM17.6 7.00336C18.0228 7.00465 18.3655 7.33016 18.3669 7.7319C18.3655 8.13362 18.0229 8.45916 17.6 8.46046L10.0701 8.46048C9.85658 8.47597 9.64581 8.40622 9.48807 8.268C9.33101 8.13043 9.24126 7.93538 9.24194 7.73193C9.24127 7.52847 9.33101 7.33342 9.48807 7.19585C9.6458 7.05762 9.85657 6.98787 10.0701 7.00337L17.6 7.00336ZM18.3669 11.6291C18.3655 11.2274 18.0228 10.9019 17.6 10.9006L10.0701 10.9006C9.85657 10.8851 9.6458 10.9548 9.48807 11.0931C9.33101 11.2306 9.24127 11.4257 9.24194 11.6291C9.24126 11.8326 9.33101 12.0276 9.48807 12.1652C9.64581 12.3034 9.85658 12.3732 10.0701 12.3577L17.6 12.3577C18.0229 12.3564 18.3655 12.0308 18.3669 11.6291ZM17.6 14.7978C18.0228 14.7991 18.3655 15.1246 18.3669 15.5263C18.3655 15.9281 18.0229 16.2536 17.6 16.2549L10.0701 16.2549C9.85658 16.2704 9.64581 16.2007 9.48807 16.0624C9.33101 15.9249 9.24126 15.7298 9.24194 15.5264C9.24127 15.3229 9.33101 15.1279 9.48807 14.9903C9.6458 14.8521 9.85657 14.7823 10.0701 14.7978L17.6 14.7978Z" fill="#25282B"/>
</svg>
